<?xml version="1.0" encoding="UTF-8"?>
<svg width="100" height="100" version="1.1" xmlns="http://www.w3.org/2000/svg">
 <path d="m56.937 85.196q0.93902 11.13 13.876 11.13v2.6741h-41.627v-2.6741q12.937 0 13.876-11.13-19.08 0-30.571-10.262-11.419-10.262-11.419-24.934 0-15.683 11.636-25.006 11.636-9.3953 30.354-10.19-0.86799-11.13-13.876-11.13v-2.6741h41.627v2.6741q-12.937 0-13.876 11.13 20.67 0.65046 31.293 10.913 10.696 10.19 10.696 24.283 0 14.671-11.419 24.934-11.419 10.262-30.571 10.262zm-13.876-66.419q-12.359 0.72277-19.369 7.7332-7.0101 6.9379-7.0101 24.717 0 28.475 26.379 29.993zm13.876 0v62.444q11.925-0.50598 19.152-7.3717 7.2995-6.8658 7.2995-25.006 0-28.547-26.452-30.065z"/>
</svg>
