<?xml version="1.0" encoding="UTF-8" standalone="no"?>
<!-- Created with Inkscape (http://www.inkscape.org/) -->

<svg
   version="1.0"
   width="247.73854"
   height="93.655502"
   id="svg4171"
   sodipodi:docname="DNA_simple.svg"
   viewBox="0 0 251.67549 95.143827"
   inkscape:version="1.4 (86a8ad7, 2024-10-11)"
   xmlns:inkscape="http://www.inkscape.org/namespaces/inkscape"
   xmlns:sodipodi="http://sodipodi.sourceforge.net/DTD/sodipodi-0.dtd"
   xmlns="http://www.w3.org/2000/svg"
   xmlns:svg="http://www.w3.org/2000/svg">
  <sodipodi:namedview
     id="namedview1"
     pagecolor="#ffffff"
     bordercolor="#000000"
     borderopacity="0.25"
     inkscape:showpageshadow="2"
     inkscape:pageopacity="0.0"
     inkscape:pagecheckerboard="0"
     inkscape:deskcolor="#d1d1d1"
     inkscape:zoom="2.0444444"
     inkscape:cx="125.70652"
     inkscape:cy="47.445652"
     inkscape:window-width="1366"
     inkscape:window-height="697"
     inkscape:window-x="-8"
     inkscape:window-y="-8"
     inkscape:window-maximized="1"
     inkscape:current-layer="svg4171" />
  <defs
     id="defs4173" />
  <g
     transform="matrix(0,1.1036964,-1.1036964,0,270.40416,-33.71362)"
     id="g2542">
    <g
       transform="translate(-492.15907,-339.97333)"
       id="g5011"
       style="display:inline">
      <path
         d="m 564.95528,371.69983 c 0,0 4.42026,1.68911 13.36765,7.4786 8.9474,5.78949 16.53127,12.52052 16.63376,12.57383 1.79004,-1.97418 2.79227,-3.17269 4.28016,-5.48214 4.39973,-6.82908 -20.96102,-20.42069 -21.29105,-20.41416 z"
         id="path5000"
         style="fill:#b89b5c;fill-opacity:1;fill-rule:nonzero;stroke:#000000;stroke-width:1.5;stroke-linecap:round;stroke-linejoin:miter;stroke-miterlimit:4;stroke-dashoffset:0;stroke-opacity:1" />
      <path
         d="m 591.43118,382.60458 h 0.10992 c 2.23511,-3.04122 0.18321,-4.16293 -1.52914,-5.24464 l -25.67554,-0.96864 c 1.92788,1.33065 0.003,-0.172 0.003,-0.172 1.92523,1.63798 3.02634,1.37641 0.66014,5.17616 l 0.14791,0.0286 26.32509,1.13838"
         id="path4703"
         style="display:inline;fill:#7df6a7;fill-opacity:1;fill-rule:evenodd;stroke:#000000;stroke-width:1.5;stroke-linecap:round;stroke-linejoin:miter;stroke-miterlimit:4;stroke-dashoffset:0;stroke-opacity:1" />
      <path
         d="m 562.5588,466.87273 c 0,0 -9.72189,-2.74757 -17.71932,-8.2458 -7.99742,-5.49823 -13.7653,-13.24204 -13.93788,-13.38818 -0.32784,0.1753 -2.74883,5.78524 -3.37899,8.36569 -2.10206,8.60772 18.98563,20.04629 19.02272,20.23459 l 16.07326,-6.77527"
         id="path4584"
         style="fill:#b89b5c;fill-opacity:1;fill-rule:evenodd;stroke:#000000;stroke-width:1.5;stroke-linecap:round;stroke-linejoin:miter;stroke-miterlimit:4;stroke-dashoffset:0;stroke-opacity:1" />
      <path
         d="m 578.45958,402.55271 -10.46651,5.03354 0.051,-0.038 -6.68226,-0.038 -0.0295,-0.0272 c -3.13197,-3.08091 -0.1275,-3.54177 0.98022,-5.07423 0,0 -1.10772,1.53246 0.031,-0.029 z"
         id="path4715"
         style="display:inline;fill:#d67df6;fill-opacity:1;fill-rule:evenodd;stroke:#000000;stroke-width:1.5;stroke-linecap:round;stroke-linejoin:miter;stroke-miterlimit:4;stroke-dashoffset:0;stroke-opacity:1" />
      <path
         d="m 590.588,395.08601 5.36023,-4.5276 -31.8129,-0.61563 0.0684,0.01 -2e-5,4.4297 -10e-6,-0.0195 z"
         id="path4707"
         style="display:inline;fill:#f67da2;fill-opacity:1;fill-rule:evenodd;stroke:#000000;stroke-width:1.5;stroke-linecap:round;stroke-linejoin:round;stroke-miterlimit:4;stroke-dashoffset:0;stroke-opacity:1" />
      <path
         d="m 562.27712,409.91232 c 0,0 -9.72189,-2.74757 -17.71932,-8.2458 -7.99742,-5.49823 -13.7653,-13.24204 -13.93788,-13.38818 -0.32784,0.1753 -2.74883,5.78524 -3.37899,8.36569 -2.10206,8.60772 18.98563,20.04629 19.02272,20.23459 l 16.07326,-6.77527"
         id="path4948"
         style="fill:#b89b5c;fill-opacity:1;fill-rule:evenodd;stroke:#000000;stroke-width:1.5;stroke-linecap:round;stroke-linejoin:miter;stroke-miterlimit:4;stroke-dashoffset:0;stroke-opacity:1" />
      <path
         d="m 552.06551,357.82051 c -8.71547,1.87683 -24.54804,13.28553 -27.14467,20.66114 -2.23174,8.60323 -1.82532,15.22783 0.55973,21.19289 12.61843,14.09457 13.83066,12.49419 20.74599,17.16082 0,-0.14504 -21.43439,-10.69973 -18.98563,-20.19133 3.25313,-12.60942 13.6979,-21.61229 28.48954,-26.87272 z"
         id="path5002"
         style="display:inline;fill:#f6d07d;fill-opacity:1;fill-rule:nonzero;stroke:#000000;stroke-width:1.5;stroke-linecap:round;stroke-linejoin:miter;stroke-miterlimit:4;stroke-dashoffset:0;stroke-opacity:1" />
      <path
         d="m 578.04021,365.84943 c 0,0 25.30547,13.41273 21.19664,20.42069 -12.01424,20.49132 -65.78267,29.0725 -74.03433,49.17194 -2.23174,8.60323 -1.82532,15.22783 0.55973,21.19289 12.61843,14.09457 13.83066,12.49419 20.74599,17.16082 0,-0.14504 -21.40874,-10.69315 -18.98563,-20.19133 7.96566,-31.22391 44.09371,-23.4973 75.14357,-53.26288 2.1362,-3.39721 2.51364,-8.99288 0.47275,-16.78703 0.0984,-4.16851 -14.82783,-10.60563 -25.09872,-17.7051 z"
         id="path2898"
         style="display:inline;fill:#f6d07d;fill-opacity:1;fill-rule:nonzero;stroke:#000000;stroke-width:1.5;stroke-linecap:round;stroke-linejoin:miter;stroke-miterlimit:4;stroke-dashoffset:0;stroke-opacity:1" />
      <path
         d="m 564.99921,381.39546 c 2.51411,-3.77117 1.26509,-3.40285 -0.66014,-5.04083 0,0 1.92523,1.63798 -0.003,0.0367 l -19.31419,-1.53095 c -0.0356,-0.15974 -1.52077,0.83441 -3.38158,2.12006 -1.86082,1.28566 -4.09724,2.86281 -3.96618,3.06206 z"
         id="path2902"
         style="display:inline;fill:#d67df6;fill-opacity:1;fill-rule:evenodd;stroke:#000000;stroke-width:1.5;stroke-linecap:round;stroke-linejoin:miter;stroke-miterlimit:4;stroke-dashoffset:0;stroke-opacity:1" />
      <path
         d="m 564.13533,389.94278 0.0684,4.43936 -35.94424,-0.49406 2.05752,-4.74794 z"
         id="path2910"
         style="display:inline;fill:#7d88f6;fill-opacity:1;fill-rule:evenodd;stroke:#000000;stroke-width:1.5;stroke-linecap:round;stroke-linejoin:miter;stroke-miterlimit:4;stroke-dashoffset:0;stroke-opacity:1" />
      <path
         d="m 561.33232,407.36514 c -3.10248,-2.93587 0.46157,-3.42396 1.21585,-4.95642 0,0 -0.75428,1.53246 0.031,-0.029 l -26.52788,-0.0704 c -1.0025,1.55188 -0.0137,0.0208 -0.0137,0.0208 -0.98884,1.53111 -1.40351,3.34929 0.83157,5.17377 l 0.066,0.006 z"
         id="path2914"
         style="display:inline;fill:#7df6a7;fill-opacity:1;fill-rule:evenodd;stroke:#000000;stroke-width:1.5;stroke-linecap:round;stroke-linejoin:miter;stroke-miterlimit:4;stroke-dashoffset:0;stroke-opacity:1" />
    </g>
    <g
       transform="translate(-507.1312,-325.30702)"
       id="g4954"
       style="display:inline">
      <path
         d="m 576.6524,409.96797 c 0,0 10.31092,4.75225 19.25831,10.54174 8.9474,5.78949 16.53127,12.52052 16.63376,12.57383 1.79004,-1.97418 2.79227,-3.17269 4.28016,-5.48214 4.39973,-6.82908 -25.90917,-23.48383 -25.76795,-23.4773 z"
         id="path4956"
         style="fill:#b89b5c;fill-opacity:1;fill-rule:nonzero;stroke:#000000;stroke-width:1.5;stroke-linecap:round;stroke-linejoin:miter;stroke-miterlimit:4;stroke-dashoffset:0;stroke-opacity:1" />
      <path
         d="m 590.91546,404.11757 c 0,0 30.018,16.47587 25.90917,23.48383 -12.01424,20.49132 -65.78267,29.0725 -74.03433,49.17194 -2.23174,8.60323 -1.82532,15.22783 0.55973,21.19289 12.61843,14.09457 13.83066,12.49419 20.74599,17.16082 0,-0.14504 -21.40874,-10.69315 -18.98563,-20.19133 7.96566,-31.22391 44.09371,-23.4973 75.14357,-53.26288 2.1362,-3.39721 2.51364,-8.99288 0.47275,-16.78703 0.0984,-4.16851 -19.54036,-13.66877 -29.81125,-20.76824 z"
         id="path4958"
         style="display:inline;fill:#f6d07d;fill-opacity:1;fill-rule:nonzero;stroke:#000000;stroke-width:1.5;stroke-linecap:round;stroke-linejoin:miter;stroke-miterlimit:4;stroke-dashoffset:0;stroke-opacity:1" />
      <path
         d="m 582.58699,422.72674 c 2.51411,-3.77117 1.26509,-3.40285 -0.66014,-5.04083 0,0 1.92523,1.63798 -0.003,0.0367 l -19.31419,-1.53095 c -0.0356,-0.15974 -1.52077,0.83441 -3.38158,2.12006 -1.86082,1.28566 -4.09724,2.86281 -3.96618,3.06206 z"
         id="path4960"
         style="display:inline;fill:#d67df6;fill-opacity:1;fill-rule:evenodd;stroke:#000000;stroke-width:1.5;stroke-linecap:round;stroke-linejoin:miter;stroke-miterlimit:4;stroke-dashoffset:0;stroke-opacity:1" />
      <path
         d="m 578.9201,448.69642 c -3.10248,-2.93587 0.46157,-3.42396 1.21585,-4.95642 0,0 -0.75428,1.53246 0.031,-0.029 l -26.52788,-0.0704 c -1.0025,1.55188 -0.0137,0.0208 -0.0137,0.0208 -0.98884,1.53111 -1.40351,3.34929 0.83157,5.17377 l 0.066,0.006 z"
         id="path4962"
         style="display:inline;fill:#7df6a7;fill-opacity:1;fill-rule:evenodd;stroke:#000000;stroke-width:1.5;stroke-linecap:round;stroke-linejoin:miter;stroke-miterlimit:4;stroke-dashoffset:0;stroke-opacity:1" />
      <path
         d="m 581.72311,431.27406 0.0684,4.43936 -35.94424,-0.49406 2.05752,-4.74794 z"
         id="path4964"
         style="display:inline;fill:#7d88f6;fill-opacity:1;fill-rule:evenodd;stroke:#000000;stroke-width:1.5;stroke-linecap:round;stroke-linejoin:miter;stroke-miterlimit:4;stroke-dashoffset:0;stroke-opacity:1" />
      <path
         d="m 609.01896,423.93586 h 0.10992 c 2.23511,-3.04122 0.18321,-4.16293 -1.52914,-5.24464 l -25.67554,-0.96864 c 1.92788,1.33065 0.003,-0.172 0.003,-0.172 1.92523,1.63798 3.02634,1.37641 0.66014,5.17616 l 0.14791,0.0286 26.32509,1.13838"
         id="path4966"
         style="display:inline;fill:#7df6a7;fill-opacity:1;fill-rule:evenodd;stroke:#000000;stroke-width:1.5;stroke-linecap:round;stroke-linejoin:miter;stroke-miterlimit:4;stroke-dashoffset:0;stroke-opacity:1" />
      <path
         d="m 589.32853,411.69936 c 1.44094,-1.62478 0.91394,-4.11513 -0.69593,-5.35128 0,0 1.60987,1.23615 -0.22955,-0.0749 l -1.89785,-0.23833 0.0138,-0.0357 -11.69002,4.78578 0.009,0.0548 z"
         id="path4968"
         style="fill:#7d88f6;fill-opacity:1;fill-rule:nonzero;stroke:#000000;stroke-width:1.5;stroke-linecap:round;stroke-linejoin:miter;stroke-miterlimit:4;stroke-dashoffset:0;stroke-opacity:1" />
      <path
         d="m 580.14658,508.20401 c 0,0 -9.72189,-2.74757 -17.71932,-8.2458 -7.99742,-5.49823 -13.7653,-13.24204 -13.93788,-13.38818 -0.32784,0.1753 -2.74883,5.78524 -3.37899,8.36569 -2.10206,8.60772 18.98563,20.04629 19.02272,20.23459 l 16.07326,-6.77527"
         id="path4970"
         style="fill:#b89b5c;fill-opacity:1;fill-rule:evenodd;stroke:#000000;stroke-width:1.5;stroke-linecap:round;stroke-linejoin:miter;stroke-miterlimit:4;stroke-dashoffset:0;stroke-opacity:1" />
      <path
         d="m 596.04736,443.88399 -10.46651,5.03354 0.051,-0.038 -6.68226,-0.038 -0.0295,-0.0272 c -3.13197,-3.08091 -0.1275,-3.54177 0.98022,-5.07423 0,0 -1.10772,1.53246 0.031,-0.029 z"
         id="path4972"
         style="display:inline;fill:#d67df6;fill-opacity:1;fill-rule:evenodd;stroke:#000000;stroke-width:1.5;stroke-linecap:round;stroke-linejoin:miter;stroke-miterlimit:4;stroke-dashoffset:0;stroke-opacity:1" />
      <path
         d="m 608.17578,436.41729 5.36023,-4.5276 -31.8129,-0.61563 0.0684,0.01 -2e-5,4.4297 -10e-6,-0.0195 z"
         id="path4974"
         style="display:inline;fill:#f67da2;fill-opacity:1;fill-rule:evenodd;stroke:#000000;stroke-width:1.5;stroke-linecap:round;stroke-linejoin:round;stroke-miterlimit:4;stroke-dashoffset:0;stroke-opacity:1" />
    </g>
    <path
       d="m 69.79743,141.12381 c 0,0 10.31092,4.75225 19.25831,10.54174 8.9474,5.78949 16.53127,12.52052 16.63376,12.57383 1.79004,-1.97418 2.79227,-3.17269 4.28016,-5.48214 4.39973,-6.82908 -25.90917,-23.48383 -25.76795,-23.4773 z"
       id="path4781"
       style="fill:#b89b5c;fill-opacity:1;fill-rule:nonzero;stroke:#000000;stroke-width:1.5;stroke-linecap:round;stroke-linejoin:miter;stroke-miterlimit:4;stroke-dashoffset:0;stroke-opacity:1" />
    <path
       d="m 84.06049,135.27341 c 0,0 30.018,16.47587 25.90917,23.48383 -12.01424,20.49132 -65.78267,29.0725 -74.03433,49.17194 -2.23174,8.60323 -1.82532,15.22783 0.55973,21.19289 12.61843,14.09457 5.47647,8.09725 12.3918,12.76388 0,-0.14504 -13.05455,-6.29621 -10.63144,-15.79439 7.96566,-31.22391 44.09371,-23.4973 75.14357,-53.26288 2.1362,-3.39721 2.51364,-8.99288 0.47275,-16.78703 0.0984,-4.16851 -19.54036,-13.66877 -29.81125,-20.76824 z"
       id="path4783"
       style="display:inline;fill:#f6d07d;fill-opacity:1;fill-rule:nonzero;stroke:#000000;stroke-width:1.5;stroke-linecap:round;stroke-linejoin:miter;stroke-miterlimit:4;stroke-dashoffset:0;stroke-opacity:1" />
    <path
       d="m 75.73202,153.88258 c 2.51411,-3.77117 1.26509,-3.40285 -0.66014,-5.04083 0,0 1.92523,1.63798 -0.0026,0.0367 L 55.75509,147.3475 c -0.03557,-0.15974 -1.52077,0.83441 -3.38158,2.12006 -1.86082,1.28566 -4.09724,2.86281 -3.96618,3.06206 z"
       id="path4785"
       style="display:inline;fill:#d67df6;fill-opacity:1;fill-rule:evenodd;stroke:#000000;stroke-width:1.5;stroke-linecap:round;stroke-linejoin:miter;stroke-miterlimit:4;stroke-dashoffset:0;stroke-opacity:1" />
    <path
       d="m 72.06513,179.85226 c -3.10248,-2.93587 0.46157,-3.42396 1.21585,-4.95642 0,0 -0.75428,1.53246 0.03104,-0.029 l -26.52788,-0.0704 c -1.0025,1.55188 -0.01366,0.0208 -0.01366,0.0208 -0.98884,1.53111 -1.40351,3.34929 0.83157,5.17377 l 0.06602,0.006 z"
       id="path4787"
       style="display:inline;fill:#7df6a7;fill-opacity:1;fill-rule:evenodd;stroke:#000000;stroke-width:1.5;stroke-linecap:round;stroke-linejoin:miter;stroke-miterlimit:4;stroke-dashoffset:0;stroke-opacity:1" />
    <path
       d="m 74.86814,162.4299 0.06839,4.43936 -35.94424,-0.49406 2.05752,-4.74794 z"
       id="path4789"
       style="display:inline;fill:#7d88f6;fill-opacity:1;fill-rule:evenodd;stroke:#000000;stroke-width:1.5;stroke-linecap:round;stroke-linejoin:miter;stroke-miterlimit:4;stroke-dashoffset:0;stroke-opacity:1" />
    <path
       d="m 102.16399,155.0917 h 0.10992 c 2.23511,-3.04122 0.18321,-4.16293 -1.52914,-5.24464 l -25.67554,-0.96864 c 1.92788,1.33065 0.0026,-0.172 0.0026,-0.172 1.92523,1.63798 3.02634,1.37641 0.66014,5.17616 l 0.14791,0.0286 26.32509,1.13838"
       id="path4791"
       style="display:inline;fill:#7df6a7;fill-opacity:1;fill-rule:evenodd;stroke:#000000;stroke-width:1.5;stroke-linecap:round;stroke-linejoin:miter;stroke-miterlimit:4;stroke-dashoffset:0;stroke-opacity:1" />
    <path
       d="m 82.47356,142.8552 c 1.44094,-1.62478 0.91394,-4.11513 -0.69593,-5.35128 0,0 1.60987,1.23615 -0.22955,-0.0749 l -1.89785,-0.23833 0.01377,-0.0357 -11.69002,4.78578 0.0093,0.0548 z"
       id="path4793"
       style="fill:#7d88f6;fill-opacity:1;fill-rule:nonzero;stroke:#000000;stroke-width:1.5;stroke-linecap:round;stroke-linejoin:miter;stroke-miterlimit:4;stroke-dashoffset:0;stroke-opacity:1" />
    <path
       d="m 89.19239,175.03983 -10.46651,5.03354 0.051,-0.038 -6.68226,-0.038 -0.02949,-0.0272 c -3.13197,-3.08091 -0.1275,-3.54177 0.98022,-5.07423 0,0 -1.10772,1.53246 0.03104,-0.029 z"
       id="path4797"
       style="display:inline;fill:#d67df6;fill-opacity:1;fill-rule:evenodd;stroke:#000000;stroke-width:1.5;stroke-linecap:round;stroke-linejoin:miter;stroke-miterlimit:4;stroke-dashoffset:0;stroke-opacity:1" />
    <path
       d="m 101.32081,167.57313 5.36023,-4.5276 -31.8129,-0.61563 0.06841,0.01 -2e-5,4.4297 -1e-5,-0.0195 z"
       id="path4799"
       style="display:inline;fill:#f67da2;fill-opacity:1;fill-rule:evenodd;stroke:#000000;stroke-width:1.5;stroke-linecap:round;stroke-linejoin:round;stroke-miterlimit:4;stroke-dashoffset:0;stroke-opacity:1" />
    <path
       d="m 70.57296,197.56378 c 0,0 10.31092,4.75225 19.25831,10.54174 8.9474,5.78949 16.53127,12.52052 16.63376,12.57383 1.79004,-1.97418 2.79227,-3.17269 4.28016,-5.48214 4.39973,-6.82908 -25.90917,-23.48383 -25.76795,-23.4773 z"
       id="path4803"
       style="fill:#b89b5c;fill-opacity:1;fill-rule:nonzero;stroke:#000000;stroke-width:1.5;stroke-linecap:round;stroke-linejoin:miter;stroke-miterlimit:4;stroke-dashoffset:0;stroke-opacity:1" />
    <path
       d="m 76.50755,210.32255 c 2.51411,-3.77117 1.26509,-3.40285 -0.66014,-5.04083 0,0 1.92523,1.63798 -0.0027,0.0367 l -19.31419,-1.53095 c -0.03557,-0.15974 -1.52077,0.83441 -3.38158,2.12006 -1.86082,1.28566 -4.09724,2.86281 -3.96618,3.06206 z"
       id="path4807"
       style="display:inline;fill:#d67df6;fill-opacity:1;fill-rule:evenodd;stroke:#000000;stroke-width:1.5;stroke-linecap:round;stroke-linejoin:miter;stroke-miterlimit:4;stroke-dashoffset:0;stroke-opacity:1" />
    <path
       d="m 102.93952,211.53167 h 0.10992 c 2.23511,-3.04122 0.18321,-4.16293 -1.52914,-5.24464 l -25.67554,-0.96864 c 1.92788,1.33065 0.0027,-0.172 0.0027,-0.172 1.92523,1.63798 3.02634,1.37641 0.66014,5.17616 l 0.14791,0.0286 26.32509,1.13838"
       id="path4813"
       style="display:inline;fill:#7df6a7;fill-opacity:1;fill-rule:evenodd;stroke:#000000;stroke-width:1.5;stroke-linecap:round;stroke-linejoin:miter;stroke-miterlimit:4;stroke-dashoffset:0;stroke-opacity:1" />
    <path
       d="m 83.24909,199.29517 c 1.44094,-1.62478 0.91394,-4.11513 -0.69593,-5.35128 0,0 1.60987,1.23615 -0.22955,-0.0749 l -1.89785,-0.23833 0.01377,-0.0357 -11.69002,4.78578 0.0093,0.0548 z"
       id="path4815"
       style="fill:#7d88f6;fill-opacity:1;fill-rule:nonzero;stroke:#000000;stroke-width:1.5;stroke-linecap:round;stroke-linejoin:miter;stroke-miterlimit:4;stroke-dashoffset:0;stroke-opacity:1" />
    <path
       d="m 102.09634,224.0131 5.36023,-4.5276 -31.8129,-0.61563 0.06841,0.01 -2e-5,4.4297 -10e-6,-0.0195 z"
       id="path4821"
       style="display:inline;fill:#f67da2;fill-opacity:1;fill-rule:evenodd;stroke:#000000;stroke-width:1.5;stroke-linecap:round;stroke-linejoin:round;stroke-miterlimit:4;stroke-dashoffset:0;stroke-opacity:1" />
    <path
       d="m 59.5505,233.36949 c -7.99742,-5.49823 -17.74351,-15.49748 -17.91609,-15.64362 -0.32784,0.1753 -2.74883,5.78524 -3.37899,8.36569 -2.10206,8.60772 10.56455,15.45298 10.60164,15.64128 z"
       id="path4909"
       style="fill:#b89b5c;fill-opacity:1;fill-rule:evenodd;stroke:#000000;stroke-width:1.5;stroke-linecap:round;stroke-linejoin:miter;stroke-miterlimit:4;stroke-dashoffset:0;stroke-opacity:1" />
    <path
       d="m 84.83602,191.71338 c 0,0 29.5047,16.19918 25.90917,23.48383 -2.69904,5.46833 -18.52138,14.04247 -26.11514,18.72545 l 9.58255,10.13561 c 8.62521,-4.84225 15.73342,-10.08663 19.96192,-14.78962 2.1362,-3.39721 2.51364,-8.99288 0.47275,-16.78703 0.0984,-4.16851 -19.54036,-13.66877 -29.81125,-20.76824 z"
       id="path4911"
       style="display:inline;fill:#f6d07d;fill-opacity:1;fill-rule:nonzero;stroke:#000000;stroke-width:1.5;stroke-linecap:round;stroke-linejoin:miter;stroke-miterlimit:4;stroke-dashoffset:0;stroke-opacity:1" />
    <path
       d="m 75.64367,218.86987 0.06839,4.43936 -35.94424,-0.49406 2.05752,-4.74794 z"
       id="path4811"
       style="display:inline;fill:#7d88f6;fill-opacity:1;fill-rule:evenodd;stroke:#000000;stroke-width:1.5;stroke-linecap:round;stroke-linejoin:miter;stroke-miterlimit:4;stroke-dashoffset:0;stroke-opacity:1" />
  </g>
</svg>
