<?xml version="1.0" encoding="UTF-8" standalone="no"?>
<!-- Created with Inkscape (http://www.inkscape.org/) -->

<svg
   width="333"
   height="333"
   id="svg2"
   sodipodi:version="0.32"
   inkscape:version="1.2.1 (9c6d41e410, 2022-07-14)"
   sodipodi:docname="Marx_Engels_edited_2upload2.svg"
   inkscape:output_extension="org.inkscape.output.svg.inkscape"
   version="1.0"
   xml:space="preserve"
   xmlns:inkscape="http://www.inkscape.org/namespaces/inkscape"
   xmlns:sodipodi="http://sodipodi.sourceforge.net/DTD/sodipodi-0.dtd"
   xmlns="http://www.w3.org/2000/svg"
   xmlns:svg="http://www.w3.org/2000/svg"
   xmlns:rdf="http://www.w3.org/1999/02/22-rdf-syntax-ns#"
   xmlns:cc="http://creativecommons.org/ns#"
   xmlns:dc="http://purl.org/dc/elements/1.1/"><defs
     id="defs4" /><sodipodi:namedview
     id="base"
     pagecolor="#ffffff"
     bordercolor="#666666"
     borderopacity="1.0"
     inkscape:pageopacity="0.0"
     inkscape:pageshadow="2"
     inkscape:zoom="2.6728636"
     inkscape:cx="142.54375"
     inkscape:cy="187.43942"
     inkscape:document-units="px"
     inkscape:current-layer="layer1"
     showgrid="false"
     inkscape:window-width="2560"
     inkscape:window-height="1387"
     inkscape:window-x="-8"
     inkscape:window-y="-8"
     inkscape:pagecheckerboard="0"
     inkscape:window-maximized="1"
     inkscape:showpageshadow="0"
     inkscape:deskcolor="#ffffff" /><metadata
     id="metadata7"><rdf:RDF><cc:Work
         rdf:about=""><dc:format>image/svg+xml</dc:format><dc:type
           rdf:resource="http://purl.org/dc/dcmitype/StillImage" /><dc:date>2008-01-22</dc:date><dc:creator><cc:Agent><dc:title>Julio Garay</dc:title></cc:Agent></dc:creator><dc:subject><rdf:Bag><rdf:li>Marx Engels Lenin</rdf:li></rdf:Bag></dc:subject><cc:license
           rdf:resource="http://creativecommons.org/licenses/by-nd/2.5/" /></cc:Work><cc:License
         rdf:about="http://creativecommons.org/licenses/by-nd/2.5/"><cc:permits
           rdf:resource="http://web.resource.org/cc/Reproduction" /><cc:permits
           rdf:resource="http://web.resource.org/cc/Distribution" /><cc:requires
           rdf:resource="http://web.resource.org/cc/Notice" /><cc:requires
           rdf:resource="http://web.resource.org/cc/Attribution" /></cc:License></rdf:RDF></metadata><g
     inkscape:label="Capa 1"
     inkscape:groupmode="layer"
     id="layer1"
     transform="translate(-89.9375,-168.7773)"><g
       id="g5859"
       transform="translate(-471.29375,-1376.6946)"><path
         style="color:#000000;fill:#b20000;fill-opacity:1;stroke-width:26.7879;stroke-linecap:round;stroke-linejoin:round;paint-order:markers stroke fill"
         d="m 894.23125,1711.9719 a 166.5,166.49999 0 0 1 -166.5,166.5 166.5,166.49999 0 0 1 -166.5,-166.5 166.5,166.49999 0 0 1 166.5,-166.5 166.5,166.49999 0 0 1 166.5,166.5 z"
         id="path5753" /><path
         id="path5755"
         style="color:#000000;fill:#000000;stroke-width:12;stroke-linecap:round;stroke-linejoin:round"
         d="m 756.21875,1602.4095 c -11.16549,-0.1231 -20.1434,4.0389 -26.64844,8.3848 -0.36458,-0.09 -0.73104,-0.1939 -1.09375,-0.2754 -27.68724,-13.3749 -62.79602,-3.4366 -73.63281,22.6934 -12.46156,4.7546 -19.03631,16.0749 -22.9707,26.0136 -2.12181,5.3599 -3.63418,10.4979 -4.98438,14.3633 -1.35019,3.8654 -3.15293,6.2721 -2.58203,5.8379 a 6.0006,6.0006 0 0 0 -1.22656,1.2559 c -1.10918,1.5318 -1.60895,2.9164 -1.87696,4.5507 -0.13399,0.8171 -0.22029,1.6945 -0.0137,2.8965 0.20665,1.2021 0.78651,3.1194 2.85352,4.5176 a 6.0006,6.0006 0 0 0 0.86719,0.4863 c 0.4459,0.2039 0.48383,0.2951 0.81836,0.4844 -2.33145,2.747 -6.92725,7.7278 -10.58008,16.3086 a 6.0006,6.0006 0 0 0 -0.42578,1.5606 c 0.0979,-0.7386 -0.59813,2.8973 0.55468,5.9062 0.19679,0.5136 0.49345,1.0127 0.77344,1.5137 -1.48362,1.1851 -2.79582,2.4881 -3.76758,3.9765 -2.46677,3.7784 -2.999,8.0623 -2.58398,11.7129 0.41501,3.6506 1.67091,6.824 3.17383,9.416 0.1142,0.1969 0.23285,0.3421 0.34179,0.5332 -8.08156,9.3237 -10.33221,19.7886 -9.13672,28.7813 1.38267,10.4006 6.5827,18.9087 10.35547,24.3828 a 6.0006,6.0006 0 0 0 1.82813,1.7266 c 13.49872,8.1845 24.45362,9.7366 33.82617,10.4687 a 6.0006,6.0006 0 0 0 0.18164,0.012 l 42.41211,2.0176 c 8.02196,5.6887 18.50015,9.0241 29.00781,9.5352 11.29976,0.5496 23.07027,-2.1011 30.1875,-10.9766 12.95168,-16.1512 30.34533,-22.8139 44.68946,-25.3203 7.17205,-1.2532 13.53846,-1.4373 17.92773,-1.2422 2.19464,0.098 3.91692,0.2971 4.85352,0.459 0.46829,0.081 0.78402,0.1809 0.57617,0.1113 -0.0755,-0.025 -0.42351,-0.1988 -0.78516,-0.3984 a 6.0006,6.0006 0 0 0 8.47656,-2.3086 c 0.50761,-1.0085 0.56159,-2.2712 0.42383,-3.4609 l 0.17188,0.029 c -1.70655,-13.8282 -0.69787,-26.9843 7.31836,-41.0567 a 6.0006,6.0006 0 0 0 0.0137,-0.025 c 18.72961,-33.2306 20.89361,-68.851 8.1582,-95.4609 -12.59664,-26.3199 -40.51382,-42.9246 -77.87305,-38.1973 -3.30746,-0.759 -6.53399,-1.1789 -9.60937,-1.2129 z m 60.42578,177.9844 a 6.0006,6.0006 0 0 0 2.12695,3.4824 c -0.39185,-0.2588 -0.97269,-0.5948 -1.67187,-1.7656 -0.23552,-0.3944 -0.3267,-1.0902 -0.45508,-1.7168 z" /><g
         id="g5769"
         transform="translate(-12.930246,1387.4524)"><path
           sodipodi:nodetypes="cccccccccccc"
           id="path5757"
           d="m 784.94587,262.9344 c -4.8227,-19.2888 -30.8273,-31.1026 -45.4669,-34.1679 -25.7918,-12.9169 -59.0944,-2.6008 -67.1565,21.6996 -23.7872,6.4846 -24.238,40.7967 -31.4521,46.2833 -0.8253,1.1398 -1.173,3.0452 -0.536,3.4761 13.2177,6.0438 0.7122,7.1064 -6.7344,24.5991 -0.1204,0.9082 -1.1252,4.3032 5.4249,8.1373 -17.8535,5.138 -8.409,22.7701 -4.6766,24.3185 -20.5588,18.3433 -9.1403,39.2766 -2.0445,49.5723 12.6152,7.6488 22.0332,8.9032 31.1813,9.6178 l 49.4306,2.3544 c 43.1713,-0.9726 72.7256,-46.2481 72.0302,-155.8905 z"
           style="fill:#000000;fill-opacity:1;stroke:none;stroke-width:2;stroke-miterlimit:4;stroke-dasharray:none;stroke-opacity:1" /><path
           id="path5759"
           d="m 714.07987,224.7059 c -20.6389,0.4862 -37.2561,12.7328 -40.4375,27.625 -22.8351,5.5464 -21.6538,30.3495 -30.5,44.5313 -1.296,0.9439 -1.4171,3.0942 -0.4688,3.5312 12.1526,5.6007 -4.3736,12.5832 -6.8437,23.6875 -1.7372,7.8098 9.2825,5.0483 11.25,5.3125 3.8022,0.5106 7.6367,4.1463 10.2812,2.5313 3.068,-1.8736 1.1725,-5.0365 1.4063,-7.2813 0.232,-2.2273 2.1809,-1.0953 2.7187,1.5938 0.5378,2.689 -0.1638,4.6809 -1.2187,6.625 -0.549,1.0117 -3.5999,1.4552 -6.0625,1.5625 -0.011,0 -0.021,0 -0.031,0 -2.2631,-0.8509 -5.1113,-1.7698 -7.2813,-1.9063 -0.2596,-0.016 -0.5106,-0.036 -0.75,-0.031 -3.5901,0.075 -4.9375,2.4063 -4.9375,2.4063 -6.5155,-1.1237 -10.7188,2.4618 -11.25,9.6562 -0.3682,4.9872 0.9516,10.2511 7.9375,12.4063 -18.2511,12.1745 -17.5375,29.9558 -4.75,48.5625 l 18.25,5.5625 c -9.5109,-22.4717 -20.7756,-36.1282 6.2188,-47.2813 6.1458,10.876 14.3878,15.7422 25.5312,12.375 -0.4999,-11.996 -6.8742,-11.7274 -8.1875,-21.3125 -1.3902,0.3189 -2.8956,-1.1389 -4.5,-3.5937 2.7678,-0.3793 5.7735,-2.2872 5.0625,-3.5313 -0.5872,-6.3721 -0.059,-11.7632 2.7813,-14.2187 l 4.6875,4.875 c -0.7853,-18.8726 20.7402,-12.5427 14.5937,-37.7813 l -10.5625,11.0313 c -4.1952,0.2958 -9.2119,0.9721 -13.4687,4 2.1519,-3.4484 0.8442,-5.3134 -0.6563,-8.0313 -2.6355,-0.1904 -6.9184,-1.0525 -10.3125,0.4688 -0.5962,3.0525 0.8217,4.0059 2.8125,5.625 -7.9819,0.9384 -7.1081,-7.6118 -10.6562,-8.8125 -2.9058,-1.117 -1.6894,-4.5358 -2.3438,-6.5313 2.9913,-0.3811 5.0761,-0.3738 7.0313,-1.5 11.3705,-6.5496 19.4249,1.3585 29.1875,5.9688 1.569,-1.3305 2.4876,-1.3004 2.5,-4.1875 4.0666,0.2509 2.5718,-3.9929 3.0937,-5.9063 -0.7979,-0.116 -3.937,-2.2387 -7.6562,0.9375 11.6068,-16.7622 1.5773,-22.7938 29.9062,-37.4062 -3.4623,4.4272 -2.7018,4.7268 -2.9062,8.2187 15.597,-5.2831 3.1728,-9.2044 23.125,-17.1875 -11.774,-2.1739 -10.7766,6.6029 -23,0.9063 9.4671,-6.3213 20.8268,-10.9486 34.7812,-13.2813 -11.654,-7.5224 -23.5641,-10.4734 -34.375,-10.2187 z m 3.0625,8.75 c 5.4881,-0.017 10.8531,0.499 15.7812,0.75 -8.8587,2.8035 -22.2615,4.2233 -31.5937,13.6563 -6.9639,-4.3259 -13.0074,0.4158 -18.1563,1.4687 9.3104,-13.2975 21.8948,-15.8377 33.9688,-15.875 z m -47.5,64.5313 c -1.853,0.057 -3.356,0.9896 -6.875,0.75 -0.5678,1.9814 -1.0157,3.9144 0.375,5.4062 10.7843,-1.0331 11.0033,3.2396 18.4375,5.4375 0.495,-0.9292 1.3248,-1.1894 1.1562,-2.0625 -0.2984,-1.5457 -3.5937,-2.2673 -4,-5.0625 -5.0163,-3.7307 -7.2407,-4.526 -9.0937,-4.4687 z m 30.5625,29.1875 c 0,0.01 -6.4038,5.7378 -10.1875,5.3437 -0.8492,0.8506 -2.6116,3.0681 -3,4.0938 -4.3606,11.5142 -4.0313,16.2812 -4.0313,16.2812 1.4897,-3.6013 2.8779,-6.364 5.0625,-8.3437 0.9354,0.1325 0.7209,1.2254 1.6563,2.8125 1.9398,-10.6627 11.399,-13.4532 10.5,-20.1875 z m -45.0313,8.3125 c 3.8596,2.6013 10.0525,9.1718 13,13.5312 -4.2245,-1.6136 -8.2391,-4.6406 -14.0312,-8.75 -2.0807,-2.2136 -0.9492,-4.2581 1.0312,-4.7812 z m -17.5312,12.0937 c 2.8144,4.5019 8.3009,7.4228 16.4062,8.75 0.8389,2.1013 1.7161,4.0624 2.6563,5.875 -3.9604,-0.5231 -5.5947,-1.9028 -8.75,-2.7187 -3.7039,0.3533 -7.2208,0.224 -9.5313,-2.9063 -0.012,0.01 -0.019,0.023 -0.031,0.031 z"
           style="fill:#ffffff;fill-opacity:1;stroke:none;stroke-width:2;stroke-miterlimit:4;stroke-dasharray:none;stroke-opacity:1" /><path
           sodipodi:nodetypes="cccccccccsccc"
           id="path5761"
           d="m 778.37927,222.1963 c -25.9259,-6.6138 -43.1217,15.3439 -43.1217,15.3439 19.1514,-1.4562 -1.0001,1.0478 8.4656,7.1428 -16.9473,13.3555 -14.1277,39.9141 -25.0661,43.254 -2.8174,3.9323 0.6659,2.5434 4.9307,7.8268 2.7536,10.965 -16.6811,16.9748 -9.891,30.07 -11.391,13.3569 -4.847,19.1918 0.1322,25.463 -6.0787,5.1813 -7.004,11.5369 -5.0264,31.4815 l -8.9947,22.7513 c 0.7075,19.974 46.0344,31.5681 60.3174,13.7566 28.1794,-35.1407 75.7039,-28.9165 75.0622,-27.6416 -1.8044,-14.6211 -0.67,-29.4382 8.0588,-44.7615 35.8458,-63.5988 7.0391,-134.6409 -64.867,-124.6868 z"
           style="fill:#000000;fill-opacity:1;stroke:none;stroke-width:5;stroke-miterlimit:4;stroke-dasharray:none;stroke-opacity:1" /><path
           id="path5763"
           d="m 768.67357,222.7059 c -14.5833,0.082 -23.9184,7.9659 -29.1875,12.8438 l 6.2188,0.8125 c 0,0 -3.0665,2.4094 -3.5625,4.625 -0.4961,2.2156 3.1562,3.6875 3.1562,3.6875 -20.1265,16.5148 -13.2213,39.4572 -25.6562,43.7812 -2.6715,5.0924 9.1111,4.9778 5.8437,7.9375 -1.1888,12.3462 -11.5273,14.7844 -11.8437,22.25 -0.086,2.0324 0.1228,4.7568 1.1875,6.2188 2.3693,0.8463 6.0226,2.0657 7.3125,2.0312 2.2665,-0.062 4.955,-1.0687 7,-1.2812 2.2498,-0.2338 5.4484,3.152 7.5312,1.6562 1.7181,-1.2338 1.5611,-4.8998 1.25,-6.5625 -0.4809,-2.5708 2.6728,-1.3771 2.5313,1.625 -0.2061,4.3706 1.679,6.8705 -4.1875,8.0938 -4.3048,0.8976 -4.4058,-3.5914 -12.8438,-0.5625 -4.4146,-1.9195 -5.4657,-1.6296 -9.8125,-2.4063 l -1.9062,2.6875 c -7.9372,10.9297 1.5311,19.3221 3.7187,21.2813 -9.0234,5.4615 -5.9188,20.2119 -5.5625,31.0937 0.1015,3.0979 -6.5186,14.5727 -7.8125,21.6563 -2.061,11.2833 13.4384,21.3133 33.8704,22.2688 -1.7081,-6.4848 -2.309,-7.2824 -7.0018,-11.0035 1.6177,-5.4328 -0.028,-10.208 0.01,-14.0183 l 5.4054,5.3044 c 0.3549,-9.612 4.8447,-11.9571 3.5633,-29.7702 -1.7757,0.2368 -3.0613,0.011 -5.5312,3.7188 2.2354,-10.9817 1.7347,-8.9601 7.4062,-14.0313 -1.2585,-2.2928 -1.9115,-4.5822 -1.0625,-6.875 1.9388,1.7786 4.4938,8.0513 6.6563,3.5313 -3.0826,10.0626 10.2387,18.1204 19,22.6562 6.1723,-15.9219 1.127,-13.7297 1.0625,-23.5625 0,0 -1.0642,0.7702 -3.2813,0.8438 -2.1357,0.071 -2.8488,-1.17 -2.1875,-2.625 0.6614,-1.4551 2.8125,-1.9063 2.8125,-1.9063 l -2.625,-3.9062 c -1.5683,-0.5083 -2.3009,-0.2084 -3.8433,0.7642 -2.5923,-6.1996 -2.1333,-8.9398 -5.9401,-10.9185 3.2117,-1.2654 2.9485,-1.6053 6.7209,-1.8145 -1.9875,-4.5878 -2.7766,-8.3695 -1.5937,-10.8437 4.0947,-4.1006 6.2944,-8.212 7.9375,-12.3125 4.3883,-3.7943 7.4621,-4.9066 10.4687,-5.9375 -0.7749,-6.9362 -3.9077,-10.6657 -11.75,-7.8438 -0.085,0.376 -0.2407,0.8225 -0.5,1.4375 -5.6709,0.2242 -6.3606,-5.1068 -9.8437,-6.5625 -6.3391,2.0695 -8.2872,1.4433 -10.1875,0.7813 l 3.9687,7.4062 c -4.8908,-1.708 -14.3168,-6.223 -11.25,-14.2812 -4.3956,3.6765 -4.1835,-1.8934 -4.9062,-5.5625 6.9261,0.752 12.3054,-1.7126 18,-4.4688 6.08,7.65 15.887,0.5573 20.375,10.5625 l 0.9062,1.9688 c 1.7534,-2.3106 3.1738,-4.7255 2.9375,-8.3125 l -0.1562,-15.0938 c 8.7042,-7.3337 16.1005,-13.6602 15.0937,-21.6875 -1.6249,-8.0976 -7.8903,-8.3143 -15.75,-7.4062 5.3849,-7.889 15.0677,-9.4425 26.3438,-11.0938 -2.6932,-4.7142 -13.6379,-1.1735 -22.2188,0 -1.7741,-7.0588 21.0325,-9.086 26.1875,-7.1562 -5.0184,-5.9002 -15.5232,-2.7299 -23.8125,-2.9063 -3.0686,-0.5905 -5.9556,-0.8276 -8.6562,-0.8125 z m 2.0313,7.4375 c -4.6932,3.3496 -6.9343,4.571 -7.5313,14.4063 h -12.0312 c -1.4632,-0.3505 -0.1316,-11.9726 3.9687,-13.8125 0,0 -2.308,2.6638 -1.3437,4.8125 0.05,0.1117 4.3985,-2.2031 4.8437,-1.9063 0,0 -3.207,1.9418 -2.4687,5.75 0.9731,-0.049 2.125,0.125 2.125,0.125 3.4491,-8.437 8.3096,-8.6697 12.4375,-9.375 z m -14.9375,62.7188 -5.25,1.7812 c -2.4895,0.6906 -5.1652,0.4687 -8.8125,-0.1562 l 0.6875,3.0937 c 2.2027,1.1928 5.3149,1.3299 9.2812,0.4063 3.2238,1.4967 7.0052,2.6596 9.0313,4.875 l 5.1875,-2.0313 c 0.5302,-0.7328 1.0751,-1.4387 1.625,-2.125 l -2.75,-2.3437 c -2.4212,-4.0666 -4.0854,-0.9473 -9,-3.5 z m 28.0312,20.5312 c -0.6333,-0.1445 -1.8155,1.3468 -2.7812,1.25 -3.6104,15.7561 -10.1618,7.1066 -18.7813,28.8438 3.8852,-2.5742 7.3181,-6.7427 10.8438,-11.7813 l 1.875,2.4063 c 2.8013,-7.8555 5.527,-7.8193 8.9687,-15.875 0.5229,-3.6066 0.3676,-4.7313 -0.125,-4.8438 z m -46.75,16.9375 c 2.347,2.1232 4.6322,4.1893 6.4063,7.3438 1.1769,-0.3781 1.5082,0 1.6875,-0.875 1.7351,2.0824 2.1214,6.224 2.75,10.1875 -1.7322,-1.8814 -2.2708,-4.9805 -4.7813,-5.75 -1.3198,-0.024 -1.395,0.7435 -1.9062,1.875 -4.2244,-2.4689 -2.3153,-8.1527 -4.1563,-12.7813 z m -21.3125,6.75 c 0,0 2.5938,6.1585 2.5938,7.0938 0,0.9353 0.9375,-2.4063 0.9375,-2.4063 1.0433,1.1917 3.2955,2.2116 4.125,4.3438 -0.2711,-1.2396 -0.7169,-2.5193 -1.6875,-3.9688 0,0 3.0819,1.6285 4.7187,3.125 1.6368,1.4965 1.8438,2.8438 1.8438,2.8438 1.8269,-0.4895 2.956,-0.6254 4.5625,-0.125 1.1062,8.1105 2.7035,6.682 4.0312,10.0312 -2.3554,-1.1146 -4.6695,-2.2724 -5.4375,-5.2187 l -0.75,1.875 c -1.4487,-1.0088 -2.6337,-2.1863 -2.9687,-3.9375 -0.02,1.6734 -2.2499,0.8062 -3.3438,1.1562 -0.9952,-1.1909 -2.668,-0.2309 -4.5,-2.5 -0.353,1.3648 0.144,0.5982 -1.1562,1.9375 -4.2741,-3.567 -3.9546,-9.7794 -2.9688,-14.25 z"
           style="fill:#ffffff;fill-opacity:1;stroke:none;stroke-width:2;stroke-miterlimit:4;stroke-opacity:1"
           sodipodi:nodetypes="cccscccscssssssccccssccccccccccsssccccccccccccccccccccccccccccccssscsccccccccccccccccccccccccccssccssccccccccc" /><path
           style="fill:#ffffff;fill-opacity:1;stroke:none;stroke-width:1.76124;stroke-miterlimit:4;stroke-dasharray:none;stroke-opacity:1"
           d="m 814.83627,290.5752 c -1.7905,-0.012 -3.8186,0.3689 -6.1369,1.2659 -14.8366,5.7408 -13.4678,19.3077 -9.7968,20.1717 -3.2407,2.8591 -5.4858,5.6072 -2.0915,8.1457 1.7096,1.2786 3.0271,-4.0728 3.0271,-4.0728 l 3.2748,-2.6969 c -2.3161,-3.325 -1.6757,-5.0828 0,-6.8524 4.6966,-4.9595 10.8408,-10.276 14.4477,-7.7054 3.6068,2.5706 3.1781,5.6423 3.8252,7.7054 -2.3443,-5.5243 -5.2701,-7.896 -7.788,-4.5406 -3.1757,4.2319 8.6958,4.7925 1.4035,12.4387 -1.8472,1.0426 -5.1447,0.9899 -5.1461,5.724 l 4.3205,0.688 c 0,0 -0.8109,0.782 -2.9171,2.3392 -3.3565,2.4817 -6.3913,-0.7262 -7.6779,-0.1101 -0.5417,0.2594 -1.5417,2.3858 -3.3848,2.2015 -2.7964,-0.7054 -6.239,-1.7106 -8.5035,0.5779 -3.8366,3.8772 -7.1069,12.9757 0.2201,12.9341 12.934,-0.074 9.9791,-7.7393 19.3461,-10.1271 7.6473,-1.9494 14.8159,-10.2905 15.2733,-18.8783 0.3859,-7.3442 -2.0272,-19.146 -11.6957,-19.2085 z"
           id="path5765" /><path
           id="path5767"
           style="color:#000000;fill:#ffffff;stroke-width:5.40892"
           d="m 817.43537,368.0329 c -4.2664,2.9096 -9.1678,4.995 -14.3225,6.7268 0,0.05 0.024,0.07 0.024,0.1216 0.1096,1.8808 -0.2102,4.5425 -1.5477,8.4277 -1.2894,3.7456 -3.1272,6.7095 -4.7856,9.4919 4.659,-1.1399 9.1593,-2.0319 13.406,-2.5987 0.2257,-3.881 0.6502,-6.7845 1.384,-8.7817 0.8848,-2.4083 2.2246,-3.8336 3.0795,-4.7855 0.855,-0.9522 1.3559,-1.4809 1.936,-3.4149 0.3361,-1.121 0.6116,-2.9251 0.8266,-5.1872 z" /></g></g></g></svg>
